<svg id="Email_Estado_hover_" data-name="Email (Estado hover)" xmlns="http://www.w3.org/2000/svg" width="28.021" height="20.578" viewBox="0 0 28.021 20.578">
  <g id="email">
    <g id="Grupo_121" data-name="Grupo 121">
      <g id="Grupo_120" data-name="Grupo 120">
        <path id="Caminho_25" data-name="Caminho 25" d="M24.737,68H3.284A3.287,3.287,0,0,0,0,71.284v14.01a3.287,3.287,0,0,0,3.284,3.284H24.737a3.287,3.287,0,0,0,3.284-3.284V71.284A3.287,3.287,0,0,0,24.737,68Zm1.095,17.294a1.1,1.1,0,0,1-1.095,1.095H3.284a1.1,1.1,0,0,1-1.095-1.095V71.284a1.1,1.1,0,0,1,1.095-1.095H24.737a1.1,1.1,0,0,1,1.095,1.095Z" transform="translate(0 -68)" fill="#de5246"/>
      </g>
    </g>
    <g id="Grupo_123" data-name="Grupo 123" transform="translate(1.068 1.365)">
      <g id="Grupo_122" data-name="Grupo 122">
        <path id="Caminho_26" data-name="Caminho 26" d="M44.1,92.937l-11.635,8.654L20.829,92.937l-1.307,1.756,12.942,9.626,12.942-9.626Z" transform="translate(-19.522 -92.937)" fill="#de5246"/>
      </g>
    </g>
  </g>
  <g id="email-2" data-name="email" opacity="0">
    <g id="Grupo_121-2" data-name="Grupo 121">
      <g id="Grupo_120-2" data-name="Grupo 120">
        <path id="Caminho_25-2" data-name="Caminho 25" d="M24.737,68H3.284A3.287,3.287,0,0,0,0,71.284v14.01a3.287,3.287,0,0,0,3.284,3.284H24.737a3.287,3.287,0,0,0,3.284-3.284V71.284A3.287,3.287,0,0,0,24.737,68Zm1.095,17.294a1.1,1.1,0,0,1-1.095,1.095H3.284a1.1,1.1,0,0,1-1.095-1.095V71.284a1.1,1.1,0,0,1,1.095-1.095H24.737a1.1,1.1,0,0,1,1.095,1.095Z" transform="translate(0 -68)" fill="#f2f2f2"/>
      </g>
    </g>
    <g id="Grupo_123-2" data-name="Grupo 123" transform="translate(1.068 1.365)">
      <g id="Grupo_122-2" data-name="Grupo 122">
        <path id="Caminho_26-2" data-name="Caminho 26" d="M44.1,92.937l-11.635,8.654L20.829,92.937l-1.307,1.756,12.942,9.626,12.942-9.626Z" transform="translate(-19.522 -92.937)" fill="#f2f2f2"/>
      </g>
    </g>
  </g>
</svg>
