<svg id="Facebook_cinza" xmlns="http://www.w3.org/2000/svg" width="50.401" height="50.401" viewBox="0 0 50.401 50.401">
  <g id="facebook">
    <g id="Grupo_95" data-name="Grupo 95">
      <path id="Caminho_22" data-name="Caminho 22" d="M44.495,0H5.906A5.913,5.913,0,0,0,0,5.906V44.495A5.913,5.913,0,0,0,5.906,50.4H44.495A5.913,5.913,0,0,0,50.4,44.495V5.906A5.913,5.913,0,0,0,44.495,0Zm1.969,44.495a1.971,1.971,0,0,1-1.969,1.969H33.273V30.418h6.083l1.005-6.1H33.273V20.082a2.9,2.9,0,0,1,2.953-2.953h4.036v-6.1H36.226A9.055,9.055,0,0,0,27.172,20.1v4.216H21.263v6.1h5.909V46.464H5.906a1.971,1.971,0,0,1-1.969-1.969V5.906A1.971,1.971,0,0,1,5.906,3.938H44.495a1.971,1.971,0,0,1,1.969,1.969Z" fill="#494949"/>
    </g>
    <g id="Grupo_96" data-name="Grupo 96" opacity="0">
      <path id="Caminho_22-2" data-name="Caminho 22" d="M44.495,0H5.906A5.913,5.913,0,0,0,0,5.906V44.495A5.913,5.913,0,0,0,5.906,50.4H44.495A5.913,5.913,0,0,0,50.4,44.495V5.906A5.913,5.913,0,0,0,44.495,0Zm1.969,44.495a1.971,1.971,0,0,1-1.969,1.969H33.273V30.418h6.083l1.005-6.1H33.273V20.082a2.9,2.9,0,0,1,2.953-2.953h4.036v-6.1H36.226A9.055,9.055,0,0,0,27.172,20.1v4.216H21.263v6.1h5.909V46.464H5.906a1.971,1.971,0,0,1-1.969-1.969V5.906A1.971,1.971,0,0,1,5.906,3.938H44.495a1.971,1.971,0,0,1,1.969,1.969Z" fill="#494949"/>
    </g>
  </g>
</svg>
