<svg id="Facebook_Estado_hover_" data-name="Facebook (Estado hover)" xmlns="http://www.w3.org/2000/svg" width="28.021" height="28.021" viewBox="0 0 28.021 28.021">
  <g id="facebook" transform="translate(88 159.922)">
    <g id="Grupo_95" data-name="Grupo 95" transform="translate(-88 -159.922)" opacity="0">
      <path id="Caminho_22" data-name="Caminho 22" d="M24.737,0H3.284A3.287,3.287,0,0,0,0,3.284V24.737a3.287,3.287,0,0,0,3.284,3.284H24.737a3.287,3.287,0,0,0,3.284-3.284V3.284A3.287,3.287,0,0,0,24.737,0Zm1.095,24.737a1.1,1.1,0,0,1-1.095,1.095H18.5V16.911H21.88l.559-3.393H18.5V11.164A1.614,1.614,0,0,1,20.14,9.523h2.244V6.129H20.14a5.034,5.034,0,0,0-5.034,5.044v2.344H11.821v3.393h3.285v8.921H3.284a1.1,1.1,0,0,1-1.095-1.095V3.284A1.1,1.1,0,0,1,3.284,2.189H24.737a1.1,1.1,0,0,1,1.095,1.095Z" fill="#f2f2f2"/>
    </g>
    <g id="Grupo_96" data-name="Grupo 96" transform="translate(-88 -159.922)">
      <path id="Caminho_22-2" data-name="Caminho 22" d="M24.737,0H3.284A3.287,3.287,0,0,0,0,3.284V24.737a3.287,3.287,0,0,0,3.284,3.284H24.737a3.287,3.287,0,0,0,3.284-3.284V3.284A3.287,3.287,0,0,0,24.737,0Zm1.095,24.737a1.1,1.1,0,0,1-1.095,1.095H18.5V16.911H21.88l.559-3.393H18.5V11.164A1.614,1.614,0,0,1,20.14,9.523h2.244V6.129H20.14a5.034,5.034,0,0,0-5.034,5.044v2.344H11.821v3.393h3.285v8.921H3.284a1.1,1.1,0,0,1-1.095-1.095V3.284A1.1,1.1,0,0,1,3.284,2.189H24.737a1.1,1.1,0,0,1,1.095,1.095Z" fill="#1877f2"/>
    </g>
  </g>
</svg>
