<svg id="Insta_cinza" xmlns="http://www.w3.org/2000/svg" width="50.364" height="50.364" viewBox="0 0 50.364 50.364">
  <g id="instagram_1_" data-name="instagram (1)" transform="translate(0 0)">
    <path id="Caminho_8" data-name="Caminho 8" d="M50.665,14.8A18.4,18.4,0,0,0,49.494,8.7a12.9,12.9,0,0,0-7.368-7.368A18.447,18.447,0,0,0,36.018.158C33.323.03,32.467,0,25.63,0S17.938.03,15.253.148a18.4,18.4,0,0,0-6.108,1.17A12.286,12.286,0,0,0,4.678,4.23a12.4,12.4,0,0,0-2.9,4.456,18.449,18.449,0,0,0-1.17,6.108C.478,17.49.449,18.346.449,25.182S.478,32.874.6,35.56a18.4,18.4,0,0,0,1.171,6.109,12.9,12.9,0,0,0,7.368,7.368,18.449,18.449,0,0,0,6.109,1.17c2.685.118,3.541.148,10.378.148s7.692-.029,10.378-.148a18.4,18.4,0,0,0,6.108-1.17,12.88,12.88,0,0,0,7.368-7.368,18.461,18.461,0,0,0,1.17-6.109c.118-2.686.148-3.541.148-10.378s-.01-7.692-.128-10.378ZM46.13,35.363a13.8,13.8,0,0,1-.866,4.672,8.353,8.353,0,0,1-4.781,4.781,13.85,13.85,0,0,1-4.672.865c-2.656.118-3.452.148-10.171.148s-7.525-.029-10.171-.148a13.794,13.794,0,0,1-4.672-.865A7.748,7.748,0,0,1,7.9,42.937a7.829,7.829,0,0,1-1.879-2.892,13.853,13.853,0,0,1-.865-4.672c-.118-2.656-.148-3.453-.148-10.171s.029-7.525.148-10.171a13.8,13.8,0,0,1,.865-4.672A7.654,7.654,0,0,1,7.915,7.466a7.817,7.817,0,0,1,2.892-1.879,13.86,13.86,0,0,1,4.672-.866c2.656-.118,3.453-.148,10.171-.148s7.525.03,10.171.148a13.8,13.8,0,0,1,4.672.866,7.743,7.743,0,0,1,2.892,1.879,7.827,7.827,0,0,1,1.879,2.892,13.858,13.858,0,0,1,.866,4.672c.118,2.656.148,3.452.148,10.171s-.03,7.505-.148,10.161Zm0,0" transform="translate(-0.449 0)" fill="#494949"/>
    <path id="Caminho_9" data-name="Caminho 9" d="M137.884,124.5a12.935,12.935,0,1,0,12.935,12.935A12.938,12.938,0,0,0,137.884,124.5Zm0,21.326a8.391,8.391,0,1,1,8.391-8.391A8.392,8.392,0,0,1,137.884,145.826Zm0,0" transform="translate(-112.702 -112.253)" fill="#494949"/>
    <path id="Caminho_10" data-name="Caminho 10" d="M368.49,91.622a3.02,3.02,0,1,1-3.02-3.02A3.02,3.02,0,0,1,368.49,91.622Zm0,0" transform="translate(-326.841 -79.886)" fill="#494949"/>
  </g>
  <g id="instagram_2_" data-name="instagram (2)" transform="translate(0 0)" opacity="0">
    <path id="Caminho_11" data-name="Caminho 11" d="M50.212,14.8a18.487,18.487,0,0,0-1.171-6.113,12.342,12.342,0,0,0-2.9-4.46,12.345,12.345,0,0,0-4.46-2.905A18.484,18.484,0,0,0,35.564.152C32.878.029,32.02,0,25.182,0S17.485.029,14.8.151A18.489,18.489,0,0,0,8.687,1.322a12.342,12.342,0,0,0-4.46,2.9,12.344,12.344,0,0,0-2.905,4.46A18.486,18.486,0,0,0,.152,14.8C.029,17.485,0,18.343,0,25.181s.029,7.7.152,10.383a18.483,18.483,0,0,0,1.17,6.113,12.34,12.34,0,0,0,2.9,4.46,12.338,12.338,0,0,0,4.46,2.9A18.478,18.478,0,0,0,14.8,50.212c2.686.123,3.543.151,10.382.151s7.7-.029,10.382-.151a18.48,18.48,0,0,0,6.113-1.171,12.874,12.874,0,0,0,7.364-7.364,18.482,18.482,0,0,0,1.171-6.113c.122-2.686.151-3.544.151-10.382s-.029-7.7-.151-10.382ZM45.679,35.358a13.933,13.933,0,0,1-.867,4.676,8.339,8.339,0,0,1-4.779,4.779,13.933,13.933,0,0,1-4.676.867c-2.655.121-3.451.147-10.176.147s-7.521-.025-10.176-.147a13.937,13.937,0,0,1-4.676-.867,7.8,7.8,0,0,1-2.9-1.884,7.8,7.8,0,0,1-1.884-2.9,13.933,13.933,0,0,1-.867-4.676c-.121-2.655-.147-3.452-.147-10.176s.026-7.52.147-10.176a13.943,13.943,0,0,1,.867-4.676,7.807,7.807,0,0,1,1.884-2.9,7.8,7.8,0,0,1,2.9-1.884,13.93,13.93,0,0,1,4.676-.867c2.655-.121,3.452-.147,10.176-.147h0c6.724,0,7.52.026,10.176.147a13.935,13.935,0,0,1,4.676.867,7.808,7.808,0,0,1,2.9,1.884,7.8,7.8,0,0,1,1.884,2.9,13.92,13.92,0,0,1,.867,4.676c.121,2.655.147,3.452.147,10.176s-.025,7.52-.147,10.176Zm0,0" transform="translate(0 0)" fill="#494949"/>
    <path id="Caminho_12" data-name="Caminho 12" d="M137.47,124.539A12.931,12.931,0,1,0,150.4,137.47,12.931,12.931,0,0,0,137.47,124.539Zm0,21.325a8.394,8.394,0,1,1,8.394-8.394A8.394,8.394,0,0,1,137.47,145.864Zm0,0" transform="translate(-112.289 -112.288)" fill="#494949"/>
    <path id="Caminho_13" data-name="Caminho 13" d="M367.973,91.647a3.022,3.022,0,1,1-3.022-3.022A3.022,3.022,0,0,1,367.973,91.647Zm0,0" transform="translate(-326.328 -79.907)" fill="#494949"/>
  </g>
</svg>
