<svg xmlns="http://www.w3.org/2000/svg" xmlns:xlink="http://www.w3.org/1999/xlink" width="28" height="28" viewBox="0 0 28 28"><defs><linearGradient id="a" x1="0.084" y1="0.916" x2="0.916" y2="0.084" gradientUnits="objectBoundingBox"><stop offset="0" stop-color="#ffd600"/><stop offset="0.5" stop-color="#ff0100"/><stop offset="1" stop-color="#d800b9"/></linearGradient><linearGradient id="b" x1="0.146" y1="0.854" x2="0.854" y2="0.146" gradientUnits="objectBoundingBox"><stop offset="0" stop-color="#ff6400"/><stop offset="0.5" stop-color="#ff0100"/><stop offset="1" stop-color="#fd0056"/></linearGradient><linearGradient id="c" x1="0.146" y1="0.854" x2="0.854" y2="0.146" gradientUnits="objectBoundingBox"><stop offset="0" stop-color="#f30072"/><stop offset="1" stop-color="#e50097"/></linearGradient></defs><path d="M28.366,8.23a10.229,10.229,0,0,0-.651-3.4,7.171,7.171,0,0,0-4.1-4.1,10.255,10.255,0,0,0-3.4-.651C18.725.016,18.249,0,14.448,0S10.172.016,8.679.082a10.232,10.232,0,0,0-3.4.651A6.83,6.83,0,0,0,2.8,2.352,6.892,6.892,0,0,0,1.187,4.829a10.257,10.257,0,0,0-.651,3.4C.465,9.723.449,10.2.449,14s.016,4.276.082,5.77a10.229,10.229,0,0,0,.651,3.4,7.17,7.17,0,0,0,4.1,4.1,10.257,10.257,0,0,0,3.4.651c1.493.066,1.969.082,5.769.082s4.276-.016,5.769-.082a10.227,10.227,0,0,0,3.4-.651,7.16,7.16,0,0,0,4.1-4.1,10.264,10.264,0,0,0,.651-3.4c.066-1.493.082-1.969.082-5.77s-.006-4.276-.071-5.77ZM25.845,19.66a7.673,7.673,0,0,1-.481,2.6,4.644,4.644,0,0,1-2.658,2.658,7.7,7.7,0,0,1-2.6.481c-1.477.066-1.919.082-5.655.082S10.27,25.462,8.8,25.4a7.669,7.669,0,0,1-2.6-.481,4.308,4.308,0,0,1-1.608-1.045,4.352,4.352,0,0,1-1.045-1.608,7.7,7.7,0,0,1-.481-2.6c-.066-1.477-.082-1.92-.082-5.655S3,9.827,3.068,8.356a7.669,7.669,0,0,1,.481-2.6A4.255,4.255,0,0,1,4.6,4.151,4.346,4.346,0,0,1,6.207,3.106a7.705,7.705,0,0,1,2.6-.481c1.477-.066,1.92-.082,5.655-.082s4.184.016,5.655.082a7.673,7.673,0,0,1,2.6.481,4.3,4.3,0,0,1,1.608,1.044,4.351,4.351,0,0,1,1.045,1.608,7.7,7.7,0,0,1,.481,2.6c.066,1.477.082,1.919.082,5.655s-.016,4.173-.082,5.649Zm0,0" transform="translate(-0.449 0)" fill="#f2f2f2"/><path d="M132.14,124.5a7.191,7.191,0,1,0,7.191,7.191A7.193,7.193,0,0,0,132.14,124.5Zm0,11.856a4.665,4.665,0,1,1,4.665-4.665A4.666,4.666,0,0,1,132.14,136.356Zm0,0" transform="translate(-118.14 -117.691)" fill="#f2f2f2"/><path d="M365.808,90.281a1.679,1.679,0,1,1-1.679-1.679A1.679,1.679,0,0,1,365.808,90.281Zm0,0" transform="translate(-342.653 -83.756)" fill="#f2f2f2"/><g transform="translate(0 0)" opacity="0"><path d="M27.915,8.228a10.278,10.278,0,0,0-.651-3.4A6.861,6.861,0,0,0,25.65,2.35,6.863,6.863,0,0,0,23.17.734a10.276,10.276,0,0,0-3.4-.65C18.279.016,17.8,0,14,0S9.721.016,8.228.084a10.279,10.279,0,0,0-3.4.651A6.861,6.861,0,0,0,2.35,2.35,6.863,6.863,0,0,0,.734,4.829a10.277,10.277,0,0,0-.65,3.4C.016,9.721,0,10.2,0,14s.016,4.279.085,5.772a10.276,10.276,0,0,0,.651,3.4A6.861,6.861,0,0,0,2.35,25.65a6.86,6.86,0,0,0,2.48,1.615,10.273,10.273,0,0,0,3.4.651C9.721,27.983,10.2,28,14,28s4.279-.016,5.772-.084a10.274,10.274,0,0,0,3.4-.651,7.157,7.157,0,0,0,4.094-4.094,10.275,10.275,0,0,0,.651-3.4C27.983,18.279,28,17.8,28,14s-.016-4.279-.084-5.772ZM25.4,19.657a7.746,7.746,0,0,1-.482,2.6,4.636,4.636,0,0,1-2.657,2.657,7.746,7.746,0,0,1-2.6.482c-1.476.068-1.919.082-5.657.082s-4.181-.014-5.657-.082a7.748,7.748,0,0,1-2.6-.482,4.339,4.339,0,0,1-1.61-1.047,4.337,4.337,0,0,1-1.047-1.61,7.746,7.746,0,0,1-.482-2.6c-.067-1.476-.082-1.919-.082-5.657s.014-4.181.082-5.657a7.752,7.752,0,0,1,.482-2.6,4.34,4.34,0,0,1,1.047-1.61,4.335,4.335,0,0,1,1.61-1.047,7.744,7.744,0,0,1,2.6-.482c1.476-.067,1.919-.082,5.657-.082h0c3.738,0,4.181.014,5.657.082a7.747,7.747,0,0,1,2.6.482,4.341,4.341,0,0,1,1.61,1.047,4.335,4.335,0,0,1,1.047,1.61,7.739,7.739,0,0,1,.482,2.6c.067,1.476.082,1.919.082,5.657s-.014,4.181-.082,5.657Zm0,0" transform="translate(0 0)" fill="url(#a)"/><path d="M131.728,124.539a7.189,7.189,0,1,0,7.189,7.189A7.189,7.189,0,0,0,131.728,124.539Zm0,11.856a4.667,4.667,0,1,1,4.667-4.667A4.667,4.667,0,0,1,131.728,136.395Zm0,0" transform="translate(-117.728 -117.728)" fill="url(#b)"/><path d="M365.29,90.305a1.68,1.68,0,1,1-1.68-1.68A1.68,1.68,0,0,1,365.29,90.305Zm0,0" transform="translate(-342.137 -83.779)" fill="url(#c)"/></g></svg>